/* XPM */
static char *result[] = {
/* columns rows colors chars-per-pixel */
"50 50 42 1 ",
"  c black",
". c #0E0E0E",
"X c #121212",
"o c #171718",
"O c #1C1C1C",
"+ c #242424",
"@ c #2C2C2C",
"# c #333333",
"$ c #3B3B3B",
"% c #434343",
"& c #474847",
"* c #474848",
"= c #4A4B4B",
"- c #545454",
"; c #575858",
": c #5B5B5B",
"> c #616262",
", c #6B6B6B",
"< c #727373",
"1 c #7C7C7C",
"2 c #858585",
"3 c #8D8D8D",
"4 c #908F90",
"5 c #8F9090",
"6 c #949494",
"7 c #9B9B9B",
"8 c #A4A4A4",
"9 c #ABABAB",
"0 c #B5B5B5",
"q c #BABABA",
"w c #C4C4C4",
"e c #CACACA",
"r c #D0CFD0",
"t c #D4D4D4",
"y c #D7D8D7",
"u c #D7D7D8",
"i c #D7D8D8",
"p c #DADADA",
"a c #E4E4E4",
"s c #E9E9E9",
"d c #FEFEFE",
"f c None",
/* pixels */
"ffffffffffffffffffffffffffffffffffffffffffffffffff",
"ffffffffffffffffffffffffffffffffffffffffffffffffff",
"ffffffffffffffffffffffffffffffffffffffffffffffffff",
"ffffffffffffffffffffffffffffffffffffffffffffffffff",
"ffffffffffffffffffffffffffffffffffffffffffffffffff",
"ffffffffffffffffffffffffffffffffffffffffffffffffff",
"ffffffffffffffffffff          ffffffffffffffffffff",
"fffffffffffffffffff <8ppppe7%$  ffffffffffffffffff",
"fffffffffffffffffff 6qppppt0,;3 ffffffffffffffffff",
"ffffffffffffffffff  eppppppp92@  fffffffffffffffff",
"ffffffffffffffff   uupppppppue6= fffffffffffffffff",
"ffffffffffffffff &>iewpppppppt9= fffffffffffffffff",
"ffffffffffffffff 28u87eeeeeeeee;  ffffffffffffffff",
"ffffffffffffffff 0et81          + ffffffffffffffff",
"ffffffffffffffff 0ei02       o  O ffffffffffffffff",
"ffffffffffffffff   uupu9<     2&  ffffffffffffffff",
"fffffffffffffffff= 9eppe071 ,8q; fffffffffffffffff",
"fffffffffffffffff  6eppppp9 3uw; fffffffffffffffff",
"ffffffffffffffff   3qtpppp9 3e6= fffffffffffffffff",
"ffffffffffffffff OO -1pppp9 4w;19fffffffffffffffff",
"ffffffffffffff   ==# #77771 ,2 <qfffffffffffffffff",
"fffffffffffff  ;ppe2# X.oXXXXX XOfffffffffffffffff",
"fffffffffffff 68ppe2# >2363431 >3<ffffffffffffffff",
"fffffffffffff wwww9>+$9qepppe8 1q@ffffffffffffffff",
"fffffffffffff 67661O %r89ypp91 >3+3fffffffffffffff",
"fffffffffffff $$$$#XX%ueq888q8 @%fffffffffffffffff",
"fffffffffffff       X$we045508 +$fffffffffffffffff",
"fffffffffffff  $22,XX#76645562 ;3fffffffffffffffff",
"fffffffffffff>78q=#o     w9<   1q,ffffffffffffffff",
"fffffffffffffXppt=#o     pq>   2w@ffffffffffffffff",
"fffffffffffffopype7o     pq>   >3+ffffffffffffffff",
"fffffffffffffX9qpp9O>2937ae262 2q@ffffffffffffffff",
"fffffffffffff+38pe8+<8t99st7qq 3e@ffffffffffffffff",
"ffffffffffffff ;t  3wyyupsr7qq >3+ffffffffffffffff",
"ffffffffffffff.@>O qtppppst7qq #=fffffffffffffffff",
"ffffffffffffff.X.X pppppasr7qq XOfffffffffffffffff",
"fffffffffffffffff  uiut2::::90 3t@ffffffffffffffff",
"fffffffffffffffff  <<<<79<##;> <92 fffffffffffffff",
"fffffffffffffffff       d      ;3e<+ffffffffffffff",
"fffffffffffffffff %pp9  d  qpq Xo1qy fffffffffffff",
"fffffffffffffffff $0q3  d  707 -< 3q< ffffffffffff",
"fffffffffffffffff =76<  d  172  u= 1q<Xfffffffffff",
"ffffffffffffffff 0er8,  d  1qee  e1O+oXfffffffffff",
"ffffffffffffffff 132,=O w  -133% fffffffffffffffff",
"ffffffffffffffff                 fffffffffffffffff",
"ffffffffffffffffffffffffffffffffffffffffffffffffff",
"ffffffffffffffffffffffffffffffffffffffffffffffffff",
"ffffffffffffffffffffffffffffffffffffffffffffffffff",
"ffffffffffffffffffffffffffffffffffffffffffffffffff",
"ffffffffffffffffffffffffffffffffffffffffffffffffff"
};
