/* XPM */
static char *pngegg[] = {
/* columns rows colors chars-per-pixel */
"32 32 145 2 ",
"   c None",
".  c black",
"X  c #010000",
"o  c #000101",
"O  c #010101",
"+  c #030000",
"@  c #020202",
"#  c gray1",
"$  c #000404",
"%  c #040404",
"&  c gray2",
"*  c #070707",
"=  c #090000",
"-  c #0B0000",
";  c #0A0807",
":  c #00090A",
">  c #000A0B",
",  c #090909",
"<  c #0A0909",
"1  c #0B0B0B",
"2  c #090D0E",
"3  c #0C0C0C",
"4  c #0C0D0D",
"5  c gray5",
"6  c gray6",
"7  c #1C0101",
"8  c #1E0101",
"9  c #000E10",
"0  c #0D1316",
"q  c #111111",
"w  c gray7",
"e  c #161616",
"r  c gray10",
"t  c #1B1B1B",
"y  c #1D1D1D",
"u  c #1E1E1E",
"i  c #220101",
"p  c #240101",
"a  c #2A0202",
"s  c #2B0202",
"d  c #2D0202",
"f  c #300202",
"g  c #001F23",
"h  c #202020",
"j  c #232323",
"k  c gray17",
"l  c #2F2F2F",
"z  c #362825",
"x  c #24383F",
"c  c gray19",
"v  c #343434",
"b  c #353535",
"n  c #373737",
"m  c #393939",
"M  c #3A3A3A",
"N  c #3C3C3C",
"B  c #3F3F3F",
"V  c #403931",
"C  c #2C444E",
"Z  c #2D464F",
"A  c #005661",
"S  c #005C68",
"D  c #494949",
"F  c #4B4B4B",
"G  c #4C4C4C",
"H  c gray30",
"J  c gray31",
"K  c #515151",
"L  c gray32",
"P  c gray33",
"I  c #565656",
"U  c gray34",
"Y  c gray35",
"T  c #5B5B5B",
"R  c gray36",
"E  c #5F5F5F",
"W  c #416471",
"Q  c gray39",
"!  c #676767",
"~  c #6B6868",
"^  c #717171",
"/  c gray45",
"(  c #777777",
")  c gray50",
"_  c #9A8772",
"`  c #DCCF5F",
"'  c #0091A4",
"]  c #0096A9",
"[  c #009AAE",
"{  c #009DB1",
"}  c #009EB2",
"|  c #00A5BA",
" . c #00A6BB",
".. c #00A7BC",
"X. c #68A0B5",
"o. c #68A0B6",
"O. c #00B0C6",
"+. c #00B8CF",
"@. c #00B8D0",
"#. c #00BCD4",
"$. c #01BCD4",
"%. c #04BDD5",
"&. c #06BDD5",
"*. c #12BFD7",
"=. c #72AFC7",
"-. c #75B7D0",
";. c #77B7D0",
":. c #52C8E2",
">. c #54C8E2",
",. c #5CC9E4",
"<. c #7CCCE7",
"1. c #74CCE8",
"2. c #808080",
"3. c #848484",
"4. c gray53",
"5. c gray56",
"6. c #909090",
"7. c #979797",
"8. c #989898",
"9. c #9A9A9A",
"0. c gray62",
"q. c gray63",
"w. c gray65",
"e. c #A7A7A7",
"r. c gray66",
"t. c gray68",
"y. c #AFAFAF",
"u. c #B1B1B1",
"i. c #B4B4B4",
"p. c gray71",
"a. c gray72",
"s. c gray73",
"d. c #EEB2A2",
"f. c #F4D7B5",
"g. c #80CCE8",
"h. c #83CDE8",
"j. c #C0C0C0",
"k. c #C1C1C1",
"l. c #CBCBCB",
"z. c gray80",
"x. c #CECECE",
"c. c #D0D0D0",
"v. c gray83",
"b. c #D8D8D8",
"n. c gray85",
/* pixels */
".                                                               ",
"                . x ;.;.=.. .                                   ",
"            C W ,.>.#.#.>.1.C                                   ",
"          0 g.#.#.#.#.+.#.#.;.                                  ",
"        . g.*.#.#.{ A   . ]  .                                  ",
"        . <.#.#.O..       . [ .                                 ",
"        . <.#. .:         .   T 9.9.T .                         ",
"          9 #.{           . k x.n.s.H p.Q                       ",
"          9 #.g           U c.n.r./ H 1 Q                       ",
"          . S .           Q n.w.H 9.T c U                       ",
"            . .           1 k.  1 1 1 1         . .             ",
"                          m k.H z d.d.;         m .             ",
"                        . . . r.V f._ . . .   u w..             ",
"                      . Q 6.. m T 3.U . 6..   u w..             ",
"                    . H w.H w x.c.u 3.. ~ p.  u 9..             ",
"                    . w c . w x.x.u s.1 d p   u ` .             ",
"                    = f p . c x.n.n.n.1 d . . u ` .             ",
"                  . d 8 . . h x.n.n.n.1 . . . u 9..             ",
"                  = 8 .   . 1 U U U . .       u w..             ",
"                . . .     . . 1 1 1 .         u w..             ",
"            . . . .       c H X. .: U .         3..             ",
"            w .         . Q k.X.' 5.w.w         . .             ",
"          1 T   .       Q u m X.' m H k .                       ",
"        h w.          . p.p.. X.'   . ) / .                     ",
"      . Q           . 9.r.    X.'     . h . .                   ",
"      5.            . U .     . .       . / 9..                 ",
"                                                                ",
"                                                                ",
"                                                                ",
"                                                                ",
"                                                                ",
"                                                                "
};
