/* XPM */
static char *wew[] = {
/* columns rows colors chars-per-pixel */
"32 32 148 2 ",
"   c None",
".  c black",
"X  c #010000",
"o  c #000001",
"O  c #000102",
"+  c #010203",
"@  c #020202",
"#  c gray1",
"$  c #010406",
"%  c #020507",
"&  c gray2",
"*  c #090705",
"=  c #0F0802",
"-  c #020609",
";  c #03090E",
":  c #030A0E",
">  c #090909",
",  c #180E03",
"<  c #1B0F04",
"1  c #1F1105",
"2  c #040B10",
"3  c #040C11",
"4  c #06121A",
"5  c #131313",
"6  c #191919",
"7  c #1B1B1B",
"8  c #2B1908",
"9  c #391F08",
"0  c #392009",
"q  c #392716",
"w  c #091924",
"e  c #0C1B25",
"r  c #0A1C28",
"t  c #0D1D28",
"y  c #0C2332",
"u  c #0C2434",
"i  c #27292A",
"p  c gray17",
"a  c #2D3338",
"s  c #3A3A3A",
"d  c #3F3F3F",
"f  c #42240A",
"g  c #4B290B",
"h  c #462E19",
"j  c #68390F",
"k  c #673B14",
"l  c #493E34",
"z  c #774112",
"x  c #7A4312",
"c  c #7D4412",
"v  c #0F2D41",
"b  c #113349",
"n  c #12334A",
"m  c #12344B",
"M  c #143952",
"N  c #143A53",
"B  c #143A54",
"V  c #1C3D54",
"C  c #16405C",
"Z  c #16405D",
"A  c #254255",
"S  c #194663",
"D  c #184664",
"F  c #194969",
"G  c #194B6B",
"H  c #1D5378",
"J  c #1E587F",
"K  c #254E69",
"L  c #34617F",
"P  c #4C4C4C",
"I  c #565656",
"U  c #626262",
"Y  c #74716E",
"T  c #6B7073",
"R  c #717272",
"E  c gray48",
"W  c #9F5717",
"Q  c #94541A",
"!  c #C0691C",
"~  c #D1721F",
"^  c #CA7122",
"/  c #E17B21",
"(  c #E67E22",
")  c #B77F4E",
"_  c #E2812A",
"`  c #E7842C",
"'  c #BD844C",
"]  c #EB954A",
"[  c #EB964B",
"{  c #EC9C56",
"}  c #EEB079",
"|  c #205F89",
" . c #236693",
".. c #256D9D",
"X. c #276D9C",
"o. c #2977AB",
"O. c #2978AD",
"+. c #2979AE",
"@. c #2A7CB2",
"#. c #2B7EB6",
"$. c #2B7FB7",
"%. c #2D83BD",
"&. c #778C93",
"*. c #2E87C2",
"=. c #3289C3",
"-. c #308DCB",
";. c #318ECD",
":. c #3191D0",
">. c #3291D2",
",. c #3292D2",
"<. c #3491D0",
"1. c #3593D2",
"2. c #3293D4",
"3. c #3395D6",
"4. c #3396D9",
"5. c #3498DA",
"6. c #3498DB",
"7. c #3599DB",
"8. c #3899DA",
"9. c #389ADC",
"0. c #399BDC",
"q. c #45A1DE",
"w. c #49A3DF",
"e. c #4BA4DF",
"r. c #79BAE6",
"t. c gray54",
"y. c gray55",
"u. c #9E9995",
"i. c #9F9F9F",
"p. c gray72",
"a. c #C1A284",
"s. c #D7B291",
"d. c #91C7EB",
"f. c #A8D2EF",
"g. c #B2D8F1",
"h. c #B3D8F1",
"j. c gray81",
"k. c #F4DECA",
"l. c #CFE1ED",
"z. c #E0E1E2",
"x. c #E1E2E2",
"c. c #EEECEA",
"v. c #E0EFF9",
"b. c #E8F3FB",
"n. c gray99",
"m. c #FFFEFD",
"M. c #FDFEFF",
"N. c white",
/* pixels */
"                                                                ",
"                                                                ",
"                                                                ",
"                                                                ",
"                                                                ",
"                                                                ",
"                    < <               < 7                       ",
"                . ) k.8               0 s.p.                    ",
"                ! N.5                   x N.P                   ",
"                ! N.5                   x [ P                   ",
"                z [ } f   u M M A V   * ( _ l                   ",
"                . g _ x c.| 6.6.6.v.&.= ( ~                     ",
"                  . . 9 k G D D D T i.. .                       ",
"                      . 2.Z 2 . . 2 i..                         ",
"                        2.6.q.a u h.i.                          ",
"                      . 2.6.e.s u b.i.                          ",
"                . #.#.#.t w w > . i 7 O.Z                       ",
"                . O.6.%.n #.P h q v .  .M                       ",
"              #.. Q 2 - 2.M N.{ ' 4.. ^ R . . .                 ",
"              #.U 1 Y s - 6.K t.a.; . . d.N.N.N.t.U             ",
"          -.X.l.t W =.2.-.2.2.-.2.-.J ; D 0.0.0.0.r.5           ",
"          0.L     j u.I . | 2 | G H . 2.| f.6.e.h.j.            ",
"          .         . E %.n 4 *.. o.H   *.x.x.x.p .             ",
"                      . X..       . G                           ",
"                      . .         . .                           ",
"                    . *.            n 6.                        ",
"                                                                ",
"                                                                ",
"                                                                ",
"                                                                ",
"                                                                ",
"                                                                "
};
